<svg width="98" height="102" viewBox="0 0 98 102" fill="none" xmlns="http://www.w3.org/2000/svg">
<path d="M46.9138 18.5158V56.3283C81.7053 55.0244 81.2757 7.21552 52.9273 2V8.95403M32.7391 45.028C15.1276 27.643 31.8803 2.86925 52.9273 8.95403M52.9273 8.95403C70.9677 14.1695 72.2555 41.1164 52.9273 49.3743C52.9273 49.3743 52.9273 19.3848 52.9273 8.95403Z" stroke="white" stroke-width="2"/>
<path d="M21.3461 69.4812V68.5259H28.0374V69.4812H25.232V77.4189H24.1516V69.4812H21.3461Z" fill="white"/>
<path d="M29.7048 77.4189V68.5259H35.0892V69.4812H30.7851V72.4861H34.8104V73.4414H30.7851V76.4636H35.1589V77.4189H29.7048Z" fill="white"/>
<path d="M37.0364 77.4189V68.5259H40.051C40.748 68.5259 41.3201 68.6446 41.7674 68.8819C42.2146 69.1164 42.5457 69.4392 42.7606 69.8503C42.9755 70.2614 43.083 70.7289 43.083 71.2528C43.083 71.7768 42.9755 72.2414 42.7606 72.6467C42.5457 73.052 42.2161 73.3704 41.7717 73.602C41.3274 73.8307 40.7596 73.9451 40.0684 73.9451H37.6289V72.9724H40.0336C40.5098 72.9724 40.8932 72.9029 41.1836 72.764C41.4769 72.625 41.6889 72.4282 41.8196 72.1734C41.9532 71.9158 42.02 71.6089 42.02 71.2528C42.02 70.8968 41.9532 70.5856 41.8196 70.3192C41.686 70.0529 41.4726 69.8474 41.1793 69.7026C40.8859 69.555 40.4982 69.4812 40.0161 69.4812H38.1168V77.4189H37.0364ZM41.2359 73.424L43.4315 77.4189H42.1768L40.0161 73.424H41.2359Z" fill="white"/>
<path d="M44.8832 77.4189V68.5259H47.8977C48.5948 68.5259 49.1669 68.6446 49.6141 68.8819C50.0614 69.1164 50.3924 69.4392 50.6074 69.8503C50.8223 70.2614 50.9297 70.7289 50.9297 71.2528C50.9297 71.7768 50.8223 72.2414 50.6074 72.6467C50.3924 73.052 50.0628 73.3704 49.6185 73.602C49.1741 73.8307 48.6064 73.9451 47.9152 73.9451H45.4756V72.9724H47.8803C48.3566 72.9724 48.74 72.9029 49.0304 72.764C49.3237 72.625 49.5357 72.4282 49.6664 72.1734C49.8 71.9158 49.8668 71.6089 49.8668 71.2528C49.8668 70.8968 49.8 70.5856 49.6664 70.3192C49.5328 70.0529 49.3193 69.8474 49.026 69.7026C48.7327 69.555 48.345 69.4812 47.8629 69.4812H45.9636V77.4189H44.8832ZM49.0827 73.424L51.2782 77.4189H50.0236L47.8629 73.424H49.0827Z" fill="white"/>
<path d="M53.0959 77.4189H51.9633L55.2392 68.5259H56.3544L59.6303 77.4189H58.4977L55.8316 69.9328H55.7619L53.0959 77.4189ZM53.5141 73.9451H58.0795V74.9004H53.5141V73.9451Z" fill="white"/>
<path d="M60.7238 77.4189V76.6373L65.5331 69.4812H60.6715V68.5259H66.8226V69.3075L62.0132 76.4636H66.8748V77.4189H60.7238Z" fill="white"/>
<path d="M75.7954 72.9724C75.7954 73.9103 75.6255 74.7209 75.2858 75.4041C74.946 76.0873 74.4798 76.6141 73.8874 76.9847C73.2949 77.3552 72.6183 77.5405 71.8574 77.5405C71.0965 77.5405 70.4198 77.3552 69.8273 76.9847C69.2349 76.6141 68.7687 76.0873 68.429 75.4041C68.0892 74.7209 67.9193 73.9103 67.9193 72.9724C67.9193 72.0345 68.0892 71.2239 68.429 70.5407C68.7687 69.8575 69.2349 69.3307 69.8273 68.9601C70.4198 68.5896 71.0965 68.4043 71.8574 68.4043C72.6183 68.4043 73.2949 68.5896 73.8874 68.9601C74.4798 69.3307 74.946 69.8575 75.2858 70.5407C75.6255 71.2239 75.7954 72.0345 75.7954 72.9724ZM74.7499 72.9724C74.7499 72.2024 74.6207 71.5525 74.3622 71.0227C74.1067 70.4929 73.7596 70.092 73.3211 69.8199C72.8854 69.5478 72.3975 69.4117 71.8574 69.4117C71.3172 69.4117 70.8278 69.5478 70.3893 69.8199C69.9537 70.092 69.6066 70.4929 69.3481 71.0227C69.0926 71.5525 68.9648 72.2024 68.9648 72.9724C68.9648 73.7424 69.0926 74.3923 69.3481 74.9221C69.6066 75.4518 69.9537 75.8528 70.3893 76.1249C70.8278 76.397 71.3172 76.5331 71.8574 76.5331C72.3975 76.5331 72.8854 76.397 73.3211 76.1249C73.7596 75.8528 74.1067 75.4518 74.3622 74.9221C74.6207 74.3923 74.7499 73.7424 74.7499 72.9724Z" fill="white"/>
<path d="M4.91639 101.001H0V85.1209H5.1342C6.67965 85.1209 8.00209 85.4388 9.10154 86.0747C10.201 86.7053 11.0437 87.6125 11.6297 88.7963C12.2158 89.975 12.5088 91.3862 12.5088 93.0301C12.5088 94.6843 12.2132 96.1085 11.622 97.3026C11.0308 98.4916 10.1699 99.4065 9.03931 100.048C7.90875 100.683 6.53444 101.001 4.91639 101.001ZM1.92922 99.2954H4.79192C6.10918 99.2954 7.20085 99.0421 8.06692 98.5355C8.93299 98.0289 9.57866 97.3078 10.0039 96.3721C10.4292 95.4364 10.6418 94.3224 10.6418 93.0301C10.6418 91.7481 10.4318 90.6444 10.0117 89.7191C9.59162 88.7886 8.96411 88.0752 8.12915 87.5789C7.2942 87.0775 6.25439 86.8268 5.00974 86.8268H1.92922V99.2954Z" fill="white"/>
<path d="M17.6741 85.1209V101.001H15.7449V85.1209H17.6741Z" fill="white"/>
<path d="M32.6197 101.001H27.7033V85.1209H32.8375C34.3829 85.1209 35.7054 85.4388 36.8048 86.0747C37.9043 86.7053 38.747 87.6125 39.333 88.7963C39.9191 89.975 40.2121 91.3862 40.2121 93.0301C40.2121 94.6843 39.9165 96.1085 39.3253 97.3026C38.7341 98.4916 37.8732 99.4065 36.7426 100.048C35.612 100.683 34.2377 101.001 32.6197 101.001ZM29.6325 99.2954H32.4952C33.8125 99.2954 34.9041 99.0421 35.7702 98.5355C36.6363 98.0289 37.282 97.3078 37.7072 96.3721C38.1325 95.4364 38.3451 94.3224 38.3451 93.0301C38.3451 91.7481 38.1351 90.6444 37.715 89.7191C37.2949 88.7886 36.6674 88.0752 35.8324 87.5789C34.9975 87.0775 33.9577 86.8268 32.713 86.8268H29.6325V99.2954Z" fill="white"/>
<path d="M43.3529 101.001H41.3303L47.1802 85.1209H49.1717L55.0215 101.001H52.999L48.2382 87.6332H48.1137L43.3529 101.001ZM44.0997 94.798H52.2522V96.5039H44.0997V94.798Z" fill="white"/>
<path d="M70.1363 85.1209V101.001H68.2693L59.5879 88.5327H59.4323V101.001H57.5031V85.1209H59.37L68.0826 97.6205H68.2382V85.1209H70.1363Z" fill="white"/>
<path d="M73.1254 86.8268V85.1209H85.0741V86.8268H80.0644V101.001H78.1352V86.8268H73.1254Z" fill="white"/>
<path d="M88.0516 101.001V85.1209H97.6665V86.8268H89.9808V92.1926H97.1687V93.8985H89.9808V99.2954H97.791V101.001H88.0516Z" fill="white"/>
</svg>
